<?xml version="1.0" standalone="no"?>
<!DOCTYPE svg PUBLIC "-//W3C//DTD SVG 20010904//EN"
 "http://www.w3.org/TR/2001/REC-SVG-20010904/DTD/svg10.dtd">
<svg version="1.0" xmlns="http://www.w3.org/2000/svg"
 width="800.000000pt" height="800.000000pt" viewBox="0 0 800.000000 800.000000"
 preserveAspectRatio="xMidYMid meet">

<g transform="translate(0.000000,800.000000) scale(0.100000,-0.100000)"
fill="#000000" stroke="none">
<path d="M3555 7964 c-49 -7 -128 -18 -175 -23 -192 -23 -577 -124 -790 -208
-172 -67 -231 -94 -413 -185 -128 -64 -166 -85 -317 -179 -87 -53 -341 -235
-381 -271 -14 -13 -57 -50 -95 -83 -182 -156 -443 -432 -562 -594 -31 -42 -59
-78 -62 -81 -4 -3 -42 -59 -85 -125 -43 -66 -86 -131 -95 -145 -9 -14 -25 -41
-35 -60 -10 -19 -21 -37 -24 -40 -4 -3 -41 -72 -83 -155 -244 -480 -386 -980
-428 -1500 -13 -168 -13 -503 1 -675 25 -324 121 -764 219 -1010 10 -25 32
-83 50 -128 17 -46 35 -91 40 -100 5 -10 36 -73 68 -142 123 -263 297 -540
492 -785 138 -174 450 -484 620 -617 108 -84 338 -244 455 -315 58 -36 273
-148 351 -183 49 -23 103 -47 119 -55 184 -86 653 -228 817 -249 27 -3 59 -8
73 -12 l25 -6 0 1556 0 1556 -480 0 -480 0 0 555 0 555 480 0 480 0 0 478 c1
532 6 628 45 787 68 283 169 471 349 650 188 187 361 277 686 357 92 22 108
23 490 22 348 -2 518 -9 668 -30 l42 -6 0 -493 0 -494 -372 -4 c-322 -3 -382
-6 -438 -21 -170 -48 -260 -134 -304 -290 -18 -65 -20 -112 -23 -513 l-4 -443
550 0 551 0 0 -41 c0 -22 -9 -100 -20 -172 -11 -73 -22 -157 -24 -187 -2 -30
-13 -118 -24 -195 -11 -77 -30 -219 -42 -315 -12 -96 -24 -181 -26 -187 -3
-10 -108 -13 -484 -13 l-480 0 0 -1565 0 -1565 50 0 c54 0 198 25 375 66 202
47 341 89 510 155 44 17 98 38 120 46 75 27 347 163 469 233 278 162 483 313
704 520 275 256 460 474 654 769 123 187 296 525 368 716 12 33 30 80 39 105
44 112 109 337 144 500 98 448 116 988 46 1450 -73 486 -230 946 -472 1375
-49 88 -233 375 -247 385 -3 3 -33 41 -65 85 -153 209 -555 612 -725 728 -25
17 -65 47 -90 66 -62 49 -265 183 -372 244 -75 43 -319 163 -453 222 -182 80
-486 171 -745 224 -294 59 -430 71 -805 70 -230 -1 -369 -6 -430 -15z"/>
</g>
</svg>
