<?xml version="1.0" encoding="UTF-8"?>
<svg id="Layer_2" data-name="Layer 2" xmlns="http://www.w3.org/2000/svg" viewBox="0 0 255.94 256">
  <defs>
    <style>
      .cls-1 {
        fill: #2b3086;
      }
    </style>
  </defs>
  <g id="Layer_1-2" data-name="Layer 1">
    <g>
      <rect class="cls-1" x="111.82" y="118.68" width="32.3" height="45.68"/>
      <path class="cls-1" d="M154.97,131.81v32.3h42.63c-13.06,25.12-39.32,42.28-69.59,42.28-43.29,0-78.39-35.1-78.39-78.39s35.1-78.39,78.39-78.39c28.5,0,53.45,15.21,67.17,37.96h54.3C232.55,36.69,184.56,0,128,0,57.31,0,0,57.31,0,128s57.31,128,128,128,125.92-55.26,127.94-124.19h-100.97Z"/>
      <path class="cls-1" d="M149.24,92.7h-18.34v7.59h5.57c-2.06,2.53-5.15,4.04-8.5,4.04-6.04,0-10.95-4.91-10.95-10.95s4.91-10.95,10.95-10.95c3.87,0,7.38,1.98,9.38,5.3l.37.62h10.96l-.56-1.68c-2.89-8.69-10.99-14.53-20.16-14.53-11.71,0-21.24,9.53-21.24,21.24s9.53,21.24,21.24,21.24c5.56,0,10.82-2.14,14.81-6.01,3.98-3.87,6.26-9.05,6.42-14.59l.04-1.31Z"/>
    </g>
  </g>
</svg>