<?xml version="1.0" standalone="no"?>
<!DOCTYPE svg PUBLIC "-//W3C//DTD SVG 20010904//EN"
 "http://www.w3.org/TR/2001/REC-SVG-20010904/DTD/svg10.dtd">
<svg version="1.0" xmlns="http://www.w3.org/2000/svg"
 width="2048.000000pt" height="2048.000000pt" viewBox="0 0 2048.000000 2048.000000"
 preserveAspectRatio="xMidYMid meet">

<g transform="translate(0.000000,2048.000000) scale(0.100000,-0.100000)"
fill="#FFFFFF" stroke="none">
<path d="M10153 18040 c-1502 -63 -2826 -482 -3998 -1263 -197 -131 -461 -325
-601 -441 -34 -28 -97 -80 -140 -116 -215 -177 -605 -554 -833 -805 -1359
-1493 -2009 -3283 -1941 -5348 5 -166 14 -361 20 -432 135 -1718 718 -3173
1779 -4440 277 -331 697 -749 1041 -1036 768 -641 1622 -1105 2558 -1389 470
-143 1008 -247 1522 -294 644 -60 1387 -43 1965 44 132 20 370 61 435 75 334
72 430 95 645 156 532 151 1064 355 1535 590 1134 566 2015 1401 2717 2574
526 880 841 1703 952 2485 39 275 43 354 48 983 l5 627 -2901 0 -2901 0 0
-990 0 -990 1130 0 1130 0 -21 -52 c-35 -90 -192 -407 -268 -543 -65 -115
-175 -287 -275 -430 -152 -217 -433 -506 -646 -666 -320 -239 -826 -469 -1301
-593 -357 -92 -663 -130 -1064 -129 -290 0 -442 10 -711 48 -865 124 -1666
504 -2339 1110 -481 433 -851 915 -1113 1447 -242 492 -381 995 -444 1603 -19
187 -16 785 5 972 91 805 359 1489 837 2138 229 312 570 668 883 923 700 571
1452 890 2326 987 191 21 583 30 776 16 591 -40 1114 -181 1665 -450 614 -298
1110 -701 1563 -1269 51 -65 115 -148 142 -187 27 -38 52 -72 56 -75 8 -7 170
-256 200 -307 22 -40 43 -54 51 -35 2 4 134 124 293 267 160 142 308 276 330
296 22 20 157 142 301 270 396 356 1016 913 1028 924 6 6 71 63 144 128 72 66
132 122 132 126 0 14 -256 387 -374 546 -268 360 -521 650 -837 960 -1159
1137 -2598 1790 -4294 1950 -379 35 -869 50 -1212 35z"/>
<path d="M10585 13473 c-240 -43 -448 -154 -638 -341 -236 -231 -341 -484
-341 -817 1 -344 105 -601 341 -838 229 -230 514 -347 846 -347 261 0 566 95
745 232 170 131 301 316 377 531 l28 77 343 0 344 0 0 -840 0 -840 514 0 c288
0 559 5 617 11 292 29 494 106 635 241 233 223 198 603 -73 789 -59 41 -150
83 -228 105 -36 10 -65 21 -65 24 0 3 22 20 49 38 141 96 217 212 228 349 18
235 -136 442 -387 522 -170 55 -145 54 -1617 58 l-1363 4 0 -231 0 -230 230 0
c164 0 230 -3 230 -11 0 -28 -70 -130 -131 -192 -236 -237 -699 -201 -941 73
-276 313 -240 761 81 1013 138 109 274 157 441 157 240 0 447 -110 583 -310
17 -25 32 -47 34 -49 2 -3 20 11 41 31 20 19 96 84 167 143 72 60 134 112 139
116 13 12 -71 126 -163 222 -165 171 -379 281 -618 316 -99 15 -352 12 -448
-6z m2942 -1428 c58 -17 138 -68 165 -105 68 -93 4 -231 -141 -303 -62 -30
-72 -32 -198 -35 l-133 -4 0 229 c0 126 3 233 8 238 12 12 242 -3 299 -20z
m146 -829 c171 -47 258 -141 259 -279 2 -138 -71 -216 -242 -262 -46 -12 -121
-18 -262 -22 l-197 -6 -3 287 c-2 157 -1 291 1 297 6 18 371 5 444 -15z"/>
<path d="M15780 12389 c-235 -49 -447 -178 -622 -377 -106 -121 -188 -287
-224 -457 -23 -102 -22 -328 0 -435 88 -419 388 -733 802 -841 77 -20 114 -23
274 -24 163 0 196 3 275 24 216 56 364 132 485 247 128 123 221 269 277 439
24 73 27 97 31 278 l4 197 -516 0 -516 0 2 -206 3 -205 259 1 258 1 -7 -28
c-11 -46 -95 -162 -145 -202 -98 -78 -243 -117 -398 -108 -176 10 -310 74
-440 212 -125 131 -179 280 -169 470 8 155 47 246 157 375 127 146 292 221
489 222 117 0 171 -13 279 -64 87 -41 193 -130 247 -208 15 -22 32 -40 37 -40
5 0 23 13 41 29 40 37 59 53 179 158 l97 84 -37 52 c-48 67 -172 193 -242 245
-105 78 -259 141 -405 168 -119 21 -356 18 -475 -7z"/>
<path d="M9840 9420 l0 -1390 965 0 965 0 0 1390 0 1390 -965 0 -965 0 0
-1390z"/>
</g>
</svg>
