<?xml version="1.0" encoding="UTF-8"?>
<svg id="Layer_2" data-name="Layer 2" xmlns="http://www.w3.org/2000/svg" viewBox="0 0 47.19 47.2">
  <defs>
    <style>
      .cls-1 {
        fill: #fff;
      }
    </style>
  </defs>
  <g id="Layer_1-2" data-name="Layer 1">
    <g>
      <rect class="cls-1" x="20.62" y="21.88" width="5.95" height="8.42"/>
      <path class="cls-1" d="M28.57,24.3v5.95h7.86c-2.41,4.63-7.25,7.8-12.83,7.8-7.98,0-14.45-6.47-14.45-14.45s6.47-14.45,14.45-14.45c5.25,0,9.85,2.8,12.38,7h10.01C42.87,6.76,34.03,0,23.6,0,10.57,0,0,10.57,0,23.6s10.57,23.6,23.6,23.6,23.22-10.19,23.59-22.9h-18.62Z"/>
      <path class="cls-1" d="M27.52,17.09h-3.38v1.4h1.03c-.38.47-.95.75-1.57.75-1.11,0-2.02-.91-2.02-2.02s.91-2.02,2.02-2.02c.71,0,1.36.37,1.73.98l.07.11h2.02l-.1-.31c-.53-1.6-2.03-2.68-3.72-2.68-2.16,0-3.92,1.76-3.92,3.92s1.76,3.92,3.92,3.92c1.03,0,2-.39,2.73-1.11.73-.71,1.15-1.67,1.18-2.69v-.24Z"/>
    </g>
  </g>
</svg>