<?xml version="1.0" standalone="no"?>
<!DOCTYPE svg PUBLIC "-//W3C//DTD SVG 20010904//EN"
 "http://www.w3.org/TR/2001/REC-SVG-20010904/DTD/svg10.dtd">
<svg version="1.0" xmlns="http://www.w3.org/2000/svg"
 width="947.000000pt" height="947.000000pt" viewBox="0 0 947.000000 947.000000"
 preserveAspectRatio="xMidYMid meet">

<g transform="translate(0.000000,947.000000) scale(0.100000,-0.100000)"
fill="#000000" stroke="none">
<path d="M5407 5952 c-10 -10 -17 -24 -17 -31 0 -7 -16 -84 -35 -171 -19 -87
-35 -164 -35 -169 0 -7 45 -11 130 -11 118 0 130 -2 140 -19 5 -11 10 -26 10
-33 0 -7 -52 -112 -116 -233 -64 -121 -152 -289 -195 -372 l-80 -153 73 -145
c59 -118 74 -141 80 -122 3 12 21 84 38 160 28 119 38 146 71 190 21 28 57 63
80 79 165 111 453 114 519 6 25 -41 25 -64 1 -104 -26 -43 -75 -58 -156 -49
-53 5 -71 3 -114 -16 -80 -34 -88 -50 -136 -284 -7 -38 -21 -99 -29 -135 -24
-101 -21 -150 13 -197 37 -51 87 -74 157 -74 91 0 135 30 164 114 9 25 14 27
63 27 73 0 158 31 220 81 37 29 53 37 55 27 4 -22 -56 -244 -77 -287 -91 -177
-383 -251 -616 -154 -57 24 -66 25 -282 24 -221 -2 -222 -2 -237 21 -13 21
-62 131 -80 183 -6 17 -9 18 -16 5 -15 -27 -61 -262 -55 -281 4 -11 22 -23 43
-28 31 -8 496 -110 782 -171 47 -10 130 -28 185 -40 433 -95 432 -95 449 -81
8 6 21 42 30 79 40 177 66 293 66 302 0 6 -19 10 -43 10 -24 0 -48 5 -55 12
-9 9 -12 92 -12 310 0 272 2 300 19 328 l18 31 6 -53 c4 -29 7 -171 7 -315 l0
-263 180 0 180 0 0 197 c0 108 2 194 5 191 3 -3 39 -90 79 -194 l73 -189 207
-3 c113 -1 206 -1 206 1 0 3 -69 145 -154 318 l-154 314 47 26 c137 78 202
239 188 464 -14 209 -89 335 -246 409 l-66 31 -271 3 -272 4 -4 -53 c-3 -42 2
-66 20 -108 39 -85 39 -155 3 -343 -60 -306 -84 -372 -161 -441 -93 -83 -212
-122 -350 -115 -105 6 -171 32 -200 80 -57 94 16 167 153 153 53 -6 72 -3 115
15 64 28 87 62 107 161 8 41 24 117 35 169 40 186 42 203 31 240 -36 121 -218
165 -307 76 -33 -33 -37 -44 -74 -208 l-21 -97 -37 -6 c-137 -20 -177 -35
-261 -103 l-34 -27 7 40 c8 43 33 160 68 315 40 179 90 255 208 314 185 92
441 61 603 -75 l47 -40 0 39 c0 22 6 45 13 51 9 7 93 12 237 13 l224 3 7 28
c8 32 -17 67 -48 67 -9 0 -44 7 -77 15 -34 8 -113 25 -176 39 -63 14 -241 52
-395 85 -154 34 -323 70 -375 81 -52 12 -124 27 -158 36 -48 11 -210 44 -218
44 0 0 -8 -8 -17 -18z m1481 -802 c35 -29 52 -82 52 -160 0 -108 -36 -163
-110 -172 l-25 -3 -3 178 -2 177 32 0 c18 -1 43 -9 56 -20z"/>
<path d="M2100 4735 l0 -785 335 0 335 0 0 190 0 190 -160 0 -160 0 0 595 0
595 -175 0 -175 0 0 -785z"/>
<path d="M2890 4735 l0 -785 180 0 180 0 0 785 0 785 -180 0 -180 0 0 -785z"/>
<path d="M3370 4735 l0 -785 175 0 175 0 2 413 3 412 19 -50 c29 -76 122 -317
171 -440 24 -60 63 -161 87 -222 l43 -113 183 0 182 0 0 785 0 785 -170 0
c-155 0 -170 -2 -170 -17 0 -10 -1 -190 -2 -400 0 -211 -3 -383 -7 -383 -3 0
-53 118 -109 263 -161 408 -194 490 -205 515 -10 22 -13 22 -194 22 l-183 0 0
-785z"/>
<path d="M4530 4735 l0 -785 180 0 180 0 2 288 3 287 102 -245 c56 -135 110
-264 120 -287 l18 -43 174 0 174 0 -52 55 c-85 90 -119 199 -99 317 l10 56
-97 192 -96 191 82 157 c45 86 89 171 99 187 10 17 48 89 85 160 37 72 83 158
101 193 l34 62 -203 0 -202 0 -125 -283 -125 -282 -3 283 -2 282 -180 0 -180
0 0 -785z"/>
</g>
</svg>
